<svg width="60" height="60" viewBox="0 0 60 60" fill="none" xmlns="http://www.w3.org/2000/svg">
<mask id="mask0_1036_15411" style="mask-type:alpha" maskUnits="userSpaceOnUse" x="0" y="0" width="60" height="60">
<rect width="60" height="60" fill="#D9D9D9"/>
</mask>
<g mask="url(#mask0_1036_15411)">
<path d="M30 30.875C28 30.875 26.3125 30.1875 24.9375 28.8125C23.5625 27.4375 22.875 25.75 22.875 23.75C22.875 21.75 23.5625 20.0625 24.9375 18.6875C26.3125 17.3125 28 16.625 30 16.625C32 16.625 33.6875 17.3125 35.0625 18.6875C36.4375 20.0625 37.125 21.75 37.125 23.75C37.125 25.75 36.4375 27.4375 35.0625 28.8125C33.6875 30.1875 32 30.875 30 30.875ZM30 29.125C31.4583 29.125 32.7188 28.5938 33.7813 27.5313C34.8438 26.4688 35.375 25.2083 35.375 23.75C35.375 22.2917 34.8438 21.0313 33.7813 19.9688C32.7188 18.9063 31.4583 18.375 30 18.375C28.5417 18.375 27.2813 18.9063 26.2188 19.9688C25.1563 21.0313 24.625 22.2917 24.625 23.75C24.625 25.2083 25.1563 26.4688 26.2188 27.5313C27.2813 28.5938 28.5417 29.125 30 29.125ZM30 52.4375L10.75 40.6875V19.3125L30 7.5625L49.25 19.3125V40.6875L30 52.4375ZM30 50.4375L40.75 43.875C39.125 42.9167 37.4063 42.1771 35.5938 41.6562C33.7813 41.1354 31.9167 40.875 30 40.875C28.0833 40.875 26.2188 41.1354 24.4063 41.6562C22.5938 42.1771 20.875 42.9167 19.25 43.875L30 50.4375ZM17.5625 42.8125C19.4375 41.6875 21.4271 40.7917 23.5313 40.125C25.6354 39.4583 27.7917 39.125 30 39.125C32.2083 39.125 34.3646 39.4583 36.4688 40.125C38.5729 40.7917 40.5625 41.6875 42.4375 42.8125L47.5 39.75V20.3125L30 9.625L12.5 20.3125V39.75L17.5625 42.8125Z" fill="#1C1B1F"/>
</g>
</svg>
