<svg width="38" height="38" viewBox="0 0 38 38" fill="none" xmlns="http://www.w3.org/2000/svg">
<path d="M6.90885 30.426C8.67969 29.1521 10.5587 28.1446 12.5458 27.4036C14.533 26.6623 16.6844 26.2917 19 26.2917C21.3156 26.2917 23.467 26.6623 25.4542 27.4036C27.4413 28.1446 29.3203 29.1521 31.0911 30.426C32.4668 29.0024 33.5733 27.3212 34.4104 25.3823C35.2479 23.4431 35.6667 21.3156 35.6667 19C35.6667 14.3819 34.0434 10.4497 30.7969 7.20312C27.5503 3.9566 23.6181 2.33333 19 2.33333C14.3819 2.33333 10.4497 3.9566 7.20312 7.20312C3.9566 10.4497 2.33333 14.3819 2.33333 19C2.33333 21.3156 2.75208 23.4431 3.58958 25.3823C4.42674 27.3212 5.53316 29.0024 6.90885 30.426ZM19 20.0417C17.2451 20.0417 15.7648 19.4387 14.5589 18.2328C13.353 17.0269 12.75 15.5465 12.75 13.7917C12.75 12.0368 13.353 10.5564 14.5589 9.35052C15.7648 8.14462 17.2451 7.54167 19 7.54167C20.7549 7.54167 22.2352 8.14462 23.4411 9.35052C24.647 10.5564 25.25 12.0368 25.25 13.7917C25.25 15.5465 24.647 17.0269 23.4411 18.2328C22.2352 19.4387 20.7549 20.0417 19 20.0417ZM19 37.75C16.3851 37.75 13.9372 37.2632 11.6562 36.2896C9.37535 35.316 7.3908 33.9852 5.7026 32.2974C4.01476 30.6092 2.68403 28.6247 1.71042 26.3438C0.736805 24.0628 0.25 21.6149 0.25 19C0.25 16.3851 0.736805 13.9372 1.71042 11.6562C2.68403 9.37535 4.01476 7.3908 5.7026 5.7026C7.3908 4.01476 9.37535 2.68403 11.6562 1.71042C13.9372 0.736804 16.3851 0.25 19 0.25C21.6149 0.25 24.0628 0.736804 26.3438 1.71042C28.6247 2.68403 30.6092 4.01476 32.2974 5.7026C33.9852 7.3908 35.316 9.37535 36.2896 11.6562C37.2632 13.9372 37.75 16.3851 37.75 19C37.75 21.6149 37.2632 24.0628 36.2896 26.3438C35.316 28.6247 33.9852 30.6092 32.2974 32.2974C30.6092 33.9852 28.6247 35.316 26.3438 36.2896C24.0628 37.2632 21.6149 37.75 19 37.75Z" fill="white"/>
</svg>
