<svg width="60" height="60" viewBox="0 0 60 60" fill="none" xmlns="http://www.w3.org/2000/svg">
<mask id="mask0_1036_15416" style="mask-type:alpha" maskUnits="userSpaceOnUse" x="0" y="0" width="60" height="60">
<rect width="60" height="60" fill="#D9D9D9"/>
</mask>
<g mask="url(#mask0_1036_15416)">
<path d="M9.125 49.75V18H19.125V8H40.875V28H50.875V49.75H34.125V39.75H25.875V49.75H9.125ZM10.875 48H19.125V39.75H10.875V48ZM10.875 38H19.125V29.75H10.875V38ZM10.875 28H19.125V19.75H10.875V28ZM20.875 38H29.125V29.75H20.875V38ZM20.875 28H29.125V19.75H20.875V28ZM20.875 18H29.125V9.75H20.875V18ZM30.875 38H39.125V29.75H30.875V38ZM30.875 28H39.125V19.75H30.875V28ZM30.875 18H39.125V9.75H30.875V18ZM40.875 48H49.125V39.75H40.875V48ZM40.875 38H49.125V29.75H40.875V38Z" fill="#1C1B1F"/>
</g>
</svg>
