<svg width="70" height="70" viewBox="0 0 70 70" fill="none" xmlns="http://www.w3.org/2000/svg">
<rect width="70" height="70" rx="35" fill="white"/>
<mask id="mask0_1424_12180" style="mask-type:alpha" maskUnits="userSpaceOnUse" x="9" y="9" width="52" height="52">
<rect x="9" y="9" width="52" height="52" fill="#D9D9D9"/>
</mask>
<g mask="url(#mask0_1424_12180)">
<path d="M50.1672 53.0915C48.9033 53.0915 47.7929 52.6853 46.8359 51.8728C45.879 51.0603 45.3102 50.0221 45.1297 48.7582H32.8339C30.8116 48.7582 29.0964 48.054 27.688 46.6457C26.2797 45.2374 25.5755 43.5221 25.5755 41.4999C25.5755 39.4776 26.2797 37.7624 27.688 36.354C29.0964 34.9457 30.8116 34.2415 32.8339 34.2415H37.1672C38.746 34.2415 40.0976 33.6784 41.2221 32.5521C42.3466 31.4254 42.9089 30.0712 42.9089 28.4896C42.9089 26.9076 42.3466 25.5568 41.2221 24.4374C40.0976 23.3179 38.746 22.7582 37.1672 22.7582H24.8714C24.6908 24.0221 24.122 25.0603 23.1651 25.8728C22.2082 26.6853 21.0977 27.0915 19.8339 27.0915C18.4194 27.0915 17.2172 26.5972 16.2274 25.6085C15.2373 24.6197 14.7422 23.419 14.7422 22.0064C14.7422 20.5937 15.2373 19.3908 16.2274 18.3978C17.2172 17.4047 18.4194 16.9082 19.8339 16.9082C21.0977 16.9082 22.2082 17.3145 23.1651 18.127C24.122 18.9395 24.6908 19.9776 24.8714 21.2415H37.1672C39.1894 21.2415 40.9047 21.9457 42.313 23.354C43.7214 24.7624 44.4255 26.4776 44.4255 28.4999C44.4255 30.5221 43.7214 32.2374 42.313 33.6457C40.9047 35.054 39.1894 35.7582 37.1672 35.7582H32.8339C31.2547 35.7582 29.9031 36.3214 28.7789 37.4477C27.6544 38.5743 27.0922 39.9285 27.0922 41.5102C27.0922 43.0922 27.6544 44.4429 28.7789 45.5624C29.9031 46.6818 31.2547 47.2415 32.8339 47.2415H45.1297C45.3102 45.9776 45.879 44.9395 46.8359 44.127C47.7929 43.3145 48.9033 42.9082 50.1672 42.9082C51.5817 42.9082 52.7838 43.4026 53.7736 44.3913C54.7638 45.38 55.2589 46.5807 55.2589 47.9934C55.2589 49.406 54.7638 50.6089 53.7736 51.602C52.7838 52.595 51.5817 53.0915 50.1672 53.0915ZM19.8339 25.5749C20.8089 25.5749 21.6484 25.2228 22.3526 24.5186C23.0568 23.8145 23.4089 22.9749 23.4089 21.9999C23.4089 21.0249 23.0568 20.1853 22.3526 19.4811C21.6484 18.777 20.8089 18.4249 19.8339 18.4249C18.8589 18.4249 18.0193 18.777 17.3151 19.4811C16.6109 20.1853 16.2589 21.0249 16.2589 21.9999C16.2589 22.9749 16.6109 23.8145 17.3151 24.5186C18.0193 25.2228 18.8589 25.5749 19.8339 25.5749Z" fill="#118279"/>
</g>
</svg>
