<svg width="70" height="70" viewBox="0 0 70 70" fill="none" xmlns="http://www.w3.org/2000/svg">
<rect width="70" height="70" rx="35" fill="white"/>
<mask id="mask0_1424_12161" style="mask-type:alpha" maskUnits="userSpaceOnUse" x="9" y="9" width="52" height="52">
<rect x="9" y="9" width="52" height="52" fill="#D9D9D9"/>
</mask>
<g mask="url(#mask0_1424_12161)">
<path d="M34.9991 33.2664C33.3903 33.2664 32.0132 32.6937 30.8678 31.5482C29.722 30.4024 29.1491 29.0252 29.1491 27.4164C29.1491 25.8077 29.722 24.4304 30.8678 23.2846C32.0132 22.1391 33.3903 21.5664 34.9991 21.5664C36.6078 21.5664 37.9851 22.1391 39.1309 23.2846C40.2764 24.4304 40.8491 25.8077 40.8491 27.4164C40.8491 29.0252 40.2764 30.4024 39.1309 31.5482C37.9851 32.6937 36.6078 33.2664 34.9991 33.2664ZM20.4824 48.4331V45.6164C20.4824 44.822 20.7262 44.0727 21.2137 43.3685C21.7012 42.6643 22.3602 42.1136 23.1908 41.7164C25.1769 40.7775 27.1539 40.0734 29.122 39.6039C31.0901 39.1345 33.0491 38.8997 34.9991 38.8997C36.9491 38.8997 38.9081 39.1345 40.8762 39.6039C42.8442 40.0734 44.8213 40.7775 46.8074 41.7164C47.638 42.1136 48.297 42.6643 48.7845 43.3685C49.272 44.0727 49.5158 44.822 49.5158 45.6164V48.4331H20.4824ZM21.9991 46.9164H47.9991V45.6164C47.9991 45.1109 47.8276 44.6324 47.4845 44.181C47.1415 43.7296 46.663 43.3414 46.0491 43.0164C44.3158 42.1859 42.5158 41.5449 40.6492 41.0935C38.783 40.6421 36.8996 40.4164 34.9991 40.4164C33.0986 40.4164 31.2152 40.6421 29.349 41.0935C27.4824 41.5449 25.6824 42.1859 23.9491 43.0164C23.3352 43.3414 22.8567 43.7296 22.5137 44.181C22.1706 44.6324 21.9991 45.1109 21.9991 45.6164V46.9164ZM34.9991 31.7497C36.1908 31.7497 37.2109 31.3254 38.0595 30.4768C38.9081 29.6282 39.3324 28.6081 39.3324 27.4164C39.3324 26.2247 38.9081 25.2046 38.0595 24.356C37.2109 23.5074 36.1908 23.0831 34.9991 23.0831C33.8074 23.0831 32.7873 23.5074 31.9387 24.356C31.0901 25.2046 30.6658 26.2247 30.6658 27.4164C30.6658 28.6081 31.0901 29.6282 31.9387 30.4768C32.7873 31.3254 33.8074 31.7497 34.9991 31.7497Z" fill="#118279"/>
</g>
</svg>
