<svg width="34" height="34" viewBox="0 0 34 34" fill="none" xmlns="http://www.w3.org/2000/svg">
<path d="M17 0C26.3888 0 34 7.61002 34 16.9975C34 26.3848 26.3888 33.9949 17 33.9949C14.2113 33.9949 11.5178 33.3217 9.10483 32.0543L1.81115 33.953C1.03887 34.1542 0.24973 33.6912 0.0485859 32.919C-0.0136171 32.6804 -0.0136342 32.4296 0.0485348 32.1908L1.94633 24.9016C0.67524 22.4866 0 19.7898 0 16.9975C0 7.61002 7.61116 0 17 0ZM19.1279 18.6972H11.475L11.302 18.7088C10.6797 18.7933 10.2 19.3266 10.2 19.972C10.2 20.6174 10.6797 21.1508 11.302 21.2353L11.475 21.2468H19.1279L19.301 21.2353C19.9233 21.1508 20.4029 20.6174 20.4029 19.972C20.4029 19.3266 19.9233 18.7933 19.301 18.7088L19.1279 18.6972ZM22.525 12.7481H11.475L11.302 12.7597C10.6797 12.8442 10.2 13.3775 10.2 14.0229C10.2 14.6683 10.6797 15.2017 11.302 15.2862L11.475 15.2977H22.525L22.6981 15.2862C23.3203 15.2017 23.8 14.6683 23.8 14.0229C23.8 13.3775 23.3203 12.8442 22.6981 12.7597L22.525 12.7481Z" fill="white"/>
</svg>
