<svg width="41" height="41" viewBox="0 0 41 41" fill="none" xmlns="http://www.w3.org/2000/svg">
<mask id="mask0_2289_12647" style="mask-type:alpha" maskUnits="userSpaceOnUse" x="0" y="0" width="41" height="41">
<rect width="41" height="41" fill="#D9D9D9"/>
</mask>
<g mask="url(#mask0_2289_12647)">
<path d="M6 41V12.0272C6 11.1646 6.2912 10.4444 6.87361 9.86666C7.45602 9.28889 8.18198 9 9.0515 9H36.9485C37.818 9 38.544 9.28889 39.1264 9.86666C39.7088 10.4444 40 11.1646 40 12.0272V32.2069C40 33.0695 39.7088 33.7897 39.1264 34.3675C38.544 34.9452 37.818 35.2341 36.9485 35.2341H11.8121L6 41ZM12.6111 28.6756H25.8333V26.8017H12.6111V28.6756ZM12.6111 23.054H33.3889V21.1801H12.6111V23.054ZM12.6111 17.4324H33.3889V15.5585H12.6111V17.4324Z" fill="#BCBCBC"/>
</g>
</svg>
