<svg width="41" height="41" viewBox="0 0 41 41" fill="none" xmlns="http://www.w3.org/2000/svg">
<rect width="41" height="41" rx="20.5" fill="#118279"/>
<mask id="mask0_2277_13939" style="mask-type:alpha" maskUnits="userSpaceOnUse" x="4" y="5" width="32" height="32">
<rect x="4" y="5" width="31.7471" height="31.7471" fill="#D9D9D9"/>
</mask>
<g mask="url(#mask0_2277_13939)">
<path d="M19.8735 28.1488C21.5269 28.1488 22.9324 27.5701 24.0899 26.4126C25.2473 25.2552 25.826 23.8497 25.826 22.1962C25.826 20.5427 25.2473 19.1372 24.0899 17.9798C22.9324 16.8224 21.5269 16.2436 19.8735 16.2436C18.22 16.2436 16.8145 16.8224 15.657 17.9798C14.4996 19.1372 13.9209 20.5427 13.9209 22.1962C13.9209 23.8497 14.4996 25.2552 15.657 26.4126C16.8145 27.5701 18.22 28.1488 19.8735 28.1488ZM19.8735 25.5032C18.9475 25.5032 18.1648 25.1835 17.5255 24.5442C16.8861 23.9048 16.5665 23.1222 16.5665 22.1962C16.5665 21.2703 16.8861 20.4876 17.5255 19.8482C18.1648 19.2089 18.9475 18.8892 19.8735 18.8892C20.7994 18.8892 21.5821 19.2089 22.2214 19.8482C22.8608 20.4876 23.1804 21.2703 23.1804 22.1962C23.1804 23.1222 22.8608 23.9048 22.2214 24.5442C21.5821 25.1835 20.7994 25.5032 19.8735 25.5032ZM9.2911 32.7786C8.56356 32.7786 7.94074 32.5195 7.42265 32.0014C6.90456 31.4833 6.64551 30.8605 6.64551 30.133V14.2594C6.64551 13.5319 6.90456 12.9091 7.42265 12.391C7.94074 11.8729 8.56356 11.6139 9.2911 11.6139H13.4579L15.9051 8.96826H23.8418L26.289 11.6139H30.4558C31.1833 11.6139 31.8062 11.8729 32.3243 12.391C32.8424 12.9091 33.1014 13.5319 33.1014 14.2594V30.133C33.1014 30.8605 32.8424 31.4833 32.3243 32.0014C31.8062 32.5195 31.1833 32.7786 30.4558 32.7786H9.2911Z" fill="white"/>
</g>
</svg>
