<svg width="30" height="30" viewBox="0 0 30 30" fill="none" xmlns="http://www.w3.org/2000/svg">
<mask id="mask0_2271_13328" style="mask-type:alpha" maskUnits="userSpaceOnUse" x="0" y="0" width="30" height="30">
<rect width="30" height="30" fill="#D9D9D9"/>
</mask>
<g mask="url(#mask0_2271_13328)">
<path d="M10.501 20.0938L15.001 15.5938L19.501 20.0938L20.0947 19.5L15.5947 15L20.0947 10.5L19.501 9.90625L15.001 14.4062L10.501 9.90625L9.90723 10.5L14.4072 15L9.90723 19.5L10.501 20.0938ZM7.25098 24.625C6.70931 24.625 6.26139 24.4479 5.90723 24.0938C5.55306 23.7396 5.37598 23.2917 5.37598 22.75V7.25C5.37598 6.70833 5.55306 6.26042 5.90723 5.90625C6.26139 5.55208 6.70931 5.375 7.25098 5.375H22.751C23.2926 5.375 23.7406 5.55208 24.0947 5.90625C24.4489 6.26042 24.626 6.70833 24.626 7.25V22.75C24.626 23.2917 24.4489 23.7396 24.0947 24.0938C23.7406 24.4479 23.2926 24.625 22.751 24.625H7.25098ZM7.25098 23.75H22.751C23.001 23.75 23.2301 23.6458 23.4385 23.4375C23.6468 23.2292 23.751 23 23.751 22.75V7.25C23.751 7 23.6468 6.77083 23.4385 6.5625C23.2301 6.35417 23.001 6.25 22.751 6.25H7.25098C7.00098 6.25 6.77181 6.35417 6.56348 6.5625C6.35514 6.77083 6.25098 7 6.25098 7.25V22.75C6.25098 23 6.35514 23.2292 6.56348 23.4375C6.77181 23.6458 7.00098 23.75 7.25098 23.75Z" fill="#F35151"/>
</g>
</svg>
