<svg width="60" height="60" viewBox="0 0 60 60" fill="none" xmlns="http://www.w3.org/2000/svg">
<mask id="mask0_1036_15421" style="mask-type:alpha" maskUnits="userSpaceOnUse" x="0" y="0" width="60" height="60">
<rect width="60" height="60" fill="#D9D9D9"/>
</mask>
<g mask="url(#mask0_1036_15421)">
<path d="M26.375 38L41.875 22.5L40.625 21.25L26.375 35.5L19.25 28.375L18 29.625L26.375 38ZM14.5 49.25C13.4583 49.25 12.5729 48.8854 11.8438 48.1562C11.1146 47.4271 10.75 46.5417 10.75 45.5V14.5C10.75 13.4583 11.1146 12.5729 11.8438 11.8438C12.5729 11.1146 13.4583 10.75 14.5 10.75H26.625C26.1667 9.54167 26.2917 8.40625 27 7.34375C27.7083 6.28125 28.7083 5.75 30 5.75C31.3333 5.75 32.3542 6.28125 33.0625 7.34375C33.7708 8.40625 33.875 9.54167 33.375 10.75H45.5C46.5417 10.75 47.4271 11.1146 48.1563 11.8438C48.8854 12.5729 49.25 13.4583 49.25 14.5V45.5C49.25 46.5417 48.8854 47.4271 48.1563 48.1562C47.4271 48.8854 46.5417 49.25 45.5 49.25H14.5ZM14.5 47.5H45.5C46 47.5 46.4583 47.2917 46.875 46.875C47.2917 46.4583 47.5 46 47.5 45.5V14.5C47.5 14 47.2917 13.5417 46.875 13.125C46.4583 12.7083 46 12.5 45.5 12.5H14.5C14 12.5 13.5417 12.7083 13.125 13.125C12.7083 13.5417 12.5 14 12.5 14.5V45.5C12.5 46 12.7083 46.4583 13.125 46.875C13.5417 47.2917 14 47.5 14.5 47.5ZM30 11.25C30.5417 11.25 30.9896 11.0729 31.3438 10.7188C31.6979 10.3646 31.875 9.91667 31.875 9.375C31.875 8.83333 31.6979 8.38542 31.3438 8.03125C30.9896 7.67708 30.5417 7.5 30 7.5C29.4583 7.5 29.0104 7.67708 28.6563 8.03125C28.3021 8.38542 28.125 8.83333 28.125 9.375C28.125 9.91667 28.3021 10.3646 28.6563 10.7188C29.0104 11.0729 29.4583 11.25 30 11.25Z" fill="#1C1B1F"/>
</g>
</svg>
