<svg width="530" height="138" viewBox="0 0 530 138" fill="none" xmlns="http://www.w3.org/2000/svg">
<g clip-path="url(#clip0_2208_10345)">
<path d="M272.333 40C272.333 45.891 277.109 50.6667 283 50.6667C288.891 50.6667 293.667 45.891 293.667 40C293.667 34.109 288.891 29.3333 283 29.3333C277.109 29.3333 272.333 34.109 272.333 40ZM283 42H530V38H283V42Z" fill="#118279"/>
<path d="M209.414 102.414C210.195 101.633 210.195 100.367 209.414 99.5858L196.686 86.8579C195.905 86.0768 194.639 86.0768 193.858 86.8579C193.077 87.6389 193.077 88.9053 193.858 89.6863L205.172 101L193.858 112.314C193.077 113.095 193.077 114.361 193.858 115.142C194.639 115.923 195.905 115.923 196.686 115.142L209.414 102.414ZM-1.74846e-07 103L208 103L208 99L1.74846e-07 99L-1.74846e-07 103Z" fill="#118279"/>
<mask id="mask0_2208_10345" style="mask-type:alpha" maskUnits="userSpaceOnUse" x="257" y="79" width="45" height="51">
<rect x="257" y="79" width="44.68" height="50.6806" fill="#D9D9D9"/>
</mask>
<g mask="url(#mask0_2208_10345)">
<path d="M275.295 124.401H263.158C262.23 124.401 261.437 124.029 260.779 123.283C260.122 122.537 259.793 121.637 259.793 120.584V108.929H262.585V120.584C262.585 120.774 262.639 120.929 262.747 121.051C262.854 121.173 262.991 121.234 263.158 121.234H275.295V124.401ZM283.386 124.401V121.234H295.523C295.69 121.234 295.827 121.173 295.934 121.051C296.042 120.929 296.095 120.774 296.095 120.584V108.929H298.888V120.584C298.888 121.637 298.559 122.537 297.902 123.283C297.244 124.029 296.451 124.401 295.523 124.401H283.386ZM259.793 99.7717V88.0967C259.793 87.0437 260.122 86.1441 260.779 85.398C261.437 84.6522 262.23 84.2793 263.158 84.2793H275.295V87.4468H263.158C262.991 87.4468 262.854 87.5077 262.747 87.6295C262.639 87.7513 262.585 87.907 262.585 88.0967V99.7717H259.793ZM296.095 99.7717V88.0967C296.095 87.907 296.042 87.7513 295.934 87.6295C295.827 87.5077 295.69 87.4468 295.523 87.4468H283.386V84.2793H295.523C296.451 84.2793 297.244 84.6522 297.902 85.398C298.559 86.1441 298.888 87.0437 298.888 88.0967V99.7717H296.095Z" fill="#118279"/>
</g>
<path d="M124.6 57V6.6H131.915V57H124.6ZM168.955 57V38.415C168.955 36.945 168.827 35.44 168.57 33.9C168.337 32.3367 167.87 30.89 167.17 29.56C166.494 28.23 165.525 27.1567 164.265 26.34C163.029 25.5233 161.407 25.115 159.4 25.115C158.094 25.115 156.857 25.3367 155.69 25.78C154.524 26.2 153.497 26.8883 152.61 27.845C151.747 28.8017 151.059 30.0617 150.545 31.625C150.055 33.1883 149.81 35.09 149.81 37.33L145.26 35.615C145.26 32.185 145.902 29.1633 147.185 26.55C148.469 23.9133 150.312 21.86 152.715 20.39C155.119 18.92 158.024 18.185 161.43 18.185C164.044 18.185 166.237 18.605 168.01 19.445C169.784 20.285 171.219 21.3933 172.315 22.77C173.435 24.1233 174.287 25.605 174.87 27.215C175.454 28.825 175.85 30.4 176.06 31.94C176.27 33.48 176.375 34.8333 176.375 36V57H168.955ZM142.39 57V19.2H148.935V30.12H149.81V57H142.39ZM205.057 25.08V19.2H214.857V25.08H205.057ZM188.957 57V17.87C188.957 16.9133 188.992 15.8983 189.062 14.825C189.132 13.7283 189.33 12.655 189.657 11.605C190.007 10.5317 190.578 9.55166 191.372 8.665C192.328 7.615 193.378 6.86833 194.522 6.425C195.665 5.98166 196.797 5.725 197.917 5.655C199.06 5.585 200.11 5.55 201.067 5.55H205.827V11.57H201.417C199.69 11.57 198.395 12.0017 197.532 12.865C196.692 13.705 196.272 14.9067 196.272 16.47V57H188.957ZM182.692 25.08V19.2H205.827V25.08H182.692ZM214.402 57V5.55H221.717V57H214.402ZM246.495 58.015C243.881 58.015 241.688 57.595 239.915 56.755C238.141 55.915 236.695 54.8183 235.575 53.465C234.478 52.0883 233.638 50.595 233.055 48.985C232.471 47.375 232.075 45.8 231.865 44.26C231.655 42.72 231.55 41.3667 231.55 40.2V19.2H238.97V37.785C238.97 39.255 239.086 40.7717 239.32 42.335C239.576 43.875 240.043 45.31 240.72 46.64C241.42 47.97 242.388 49.0433 243.625 49.86C244.885 50.6767 246.518 51.085 248.525 51.085C249.831 51.085 251.068 50.875 252.235 50.455C253.401 50.0117 254.416 49.3117 255.28 48.355C256.166 47.3983 256.855 46.1383 257.345 44.575C257.858 43.0117 258.115 41.11 258.115 38.87L262.665 40.585C262.665 44.015 262.023 47.0483 260.74 49.685C259.456 52.2983 257.613 54.34 255.21 55.81C252.806 57.28 249.901 58.015 246.495 58.015ZM258.99 57V46.08H258.115V19.2H265.5V57H258.99Z" fill="black"/>
<path d="M214.5 122V120.845L240.225 78.495H215.9V71.6H252.79V72.79L227.205 115.07H252.335V122H214.5Z" fill="black"/>
<path d="M333.43 122V103.415C333.43 101.945 333.302 100.44 333.045 98.9C332.812 97.3367 332.345 95.89 331.645 94.56C330.968 93.23 330 92.1567 328.74 91.34C327.503 90.5233 325.882 90.115 323.875 90.115C322.568 90.115 321.332 90.3367 320.165 90.78C318.998 91.2 317.972 91.8883 317.085 92.845C316.222 93.8017 315.533 95.0617 315.02 96.625C314.53 98.1883 314.285 100.09 314.285 102.33L309.735 100.615C309.735 97.185 310.377 94.1633 311.66 91.55C312.943 88.9133 314.787 86.86 317.19 85.39C319.593 83.92 322.498 83.185 325.905 83.185C328.518 83.185 330.712 83.605 332.485 84.445C334.258 85.285 335.693 86.3933 336.79 87.77C337.91 89.1233 338.762 90.605 339.345 92.215C339.928 93.825 340.325 95.4 340.535 96.94C340.745 98.48 340.85 99.8333 340.85 101V122H333.43ZM306.865 122V84.2H313.41V95.12H314.285V122H306.865ZM366.253 123.05C362.496 123.05 359.195 122.233 356.348 120.6C353.525 118.943 351.32 116.645 349.733 113.705C348.17 110.742 347.388 107.312 347.388 103.415C347.388 99.285 348.158 95.7033 349.698 92.67C351.261 89.6367 353.431 87.2917 356.208 85.635C358.985 83.9783 362.216 83.15 365.903 83.15C369.753 83.15 373.031 84.0483 375.738 85.845C378.445 87.6183 380.463 90.15 381.793 93.44C383.146 96.73 383.683 100.638 383.403 105.165H376.088V102.505C376.041 98.1183 375.201 94.875 373.568 92.775C371.958 90.675 369.496 89.625 366.183 89.625C362.52 89.625 359.766 90.78 357.923 93.09C356.08 95.4 355.158 98.7367 355.158 103.1C355.158 107.253 356.08 110.473 357.923 112.76C359.766 115.023 362.426 116.155 365.903 116.155C368.19 116.155 370.161 115.642 371.818 114.615C373.498 113.565 374.805 112.072 375.738 110.135L382.913 112.41C381.443 115.793 379.215 118.418 376.228 120.285C373.241 122.128 369.916 123.05 366.253 123.05ZM352.778 105.165V99.46H379.763V105.165H352.778Z" fill="black"/>
</g>
<defs>
<clipPath id="clip0_2208_10345">
<rect width="530" height="138" fill="white"/>
</clipPath>
</defs>
</svg>
