<svg width="50" height="50" viewBox="0 0 50 50" fill="none" xmlns="http://www.w3.org/2000/svg">
<mask id="mask0_2281_12371" style="mask-type:alpha" maskUnits="userSpaceOnUse" x="0" y="0" width="50" height="50">
<rect width="50" height="50" fill="#D9D9D9"/>
</mask>
<g mask="url(#mask0_2281_12371)">
<path d="M9.61562 41.6663C8.6566 41.6663 7.8559 41.3452 7.21354 40.7028C6.57118 40.0604 6.25 39.2597 6.25 38.3007V17.9486C6.25 16.9896 6.57118 16.1889 7.21354 15.5465C7.8559 14.9042 8.6566 14.583 9.61562 14.583H18.75V11.6981C18.75 10.7394 19.0712 9.93891 19.7135 9.29655C20.3559 8.65419 21.1566 8.33301 22.1156 8.33301H27.8844C28.8434 8.33301 29.6441 8.65419 30.2865 9.29655C30.9288 9.93891 31.25 10.7394 31.25 11.6981V14.583H40.3844C41.3434 14.583 42.1441 14.9042 42.7865 15.5465C43.4288 16.1889 43.75 16.9896 43.75 17.9486V38.3007C43.75 39.2597 43.4288 40.0604 42.7865 40.7028C42.1441 41.3452 41.3434 41.6663 40.3844 41.6663H9.61562ZM20.8333 14.583H29.1667V11.6981C29.1667 11.3776 29.0332 11.0839 28.7661 10.8169C28.4991 10.5498 28.2052 10.4163 27.8844 10.4163H22.1156C21.7948 10.4163 21.5009 10.5498 21.2339 10.8169C20.9668 11.0839 20.8333 11.3776 20.8333 11.6981V14.583Z" fill="#BCBCBC"/>
</g>
</svg>
