<svg width="38" height="34" viewBox="0 0 38 34" fill="none" xmlns="http://www.w3.org/2000/svg">
<path d="M3.61562 33.6663C2.6566 33.6663 1.8559 33.3452 1.21354 32.7028C0.571181 32.0604 0.25 31.2597 0.25 30.3007V9.94863C0.25 8.9896 0.571181 8.18891 1.21354 7.54655C1.8559 6.90419 2.6566 6.58301 3.61562 6.58301H12.75V3.69811C12.75 2.73943 13.0712 1.93891 13.7135 1.29655C14.3559 0.654188 15.1566 0.333008 16.1156 0.333008H21.8844C22.8434 0.333008 23.6441 0.654188 24.2865 1.29655C24.9288 1.93891 25.25 2.73943 25.25 3.69811V6.58301H34.3844C35.3434 6.58301 36.1441 6.90419 36.7865 7.54655C37.4288 8.18891 37.75 8.9896 37.75 9.94863V30.3007C37.75 31.2597 37.4288 32.0604 36.7865 32.7028C36.1441 33.3452 35.3434 33.6663 34.3844 33.6663H3.61562ZM14.8333 6.58301H23.1667V3.69811C23.1667 3.37762 23.0332 3.08388 22.7661 2.81686C22.4991 2.54985 22.2052 2.41634 21.8844 2.41634H16.1156C15.7948 2.41634 15.5009 2.54985 15.2339 2.81686C14.9668 3.08388 14.8333 3.37762 14.8333 3.69811V6.58301Z" fill="white"/>
</svg>
