<svg width="226" height="115" viewBox="0 0 226 115" fill="none" xmlns="http://www.w3.org/2000/svg">
<g clip-path="url(#clip0_2208_7518)">
<path d="M115.333 30C115.333 35.891 120.109 40.6667 126 40.6667C131.891 40.6667 136.667 35.891 136.667 30C136.667 24.109 131.891 19.3333 126 19.3333C120.109 19.3333 115.333 24.109 115.333 30ZM126 32H223V28H126V32Z" fill="black"/>
<path d="M99.5 100V99.175L117.875 68.925H100.5V64H126.85V64.85L108.575 95.05H126.525V100H99.5Z" fill="white"/>
<path d="M187.45 100V86.725C187.45 85.675 187.358 84.6 187.175 83.5C187.008 82.3833 186.675 81.35 186.175 80.4C185.692 79.45 185 78.6833 184.1 78.1C183.217 77.5167 182.058 77.225 180.625 77.225C179.692 77.225 178.808 77.3833 177.975 77.7C177.142 78 176.408 78.4917 175.775 79.175C175.158 79.8583 174.667 80.7583 174.3 81.875C173.95 82.9917 173.775 84.35 173.775 85.95L170.525 84.725C170.525 82.275 170.983 80.1167 171.9 78.25C172.817 76.3667 174.133 74.9 175.85 73.85C177.567 72.8 179.642 72.275 182.075 72.275C183.942 72.275 185.508 72.575 186.775 73.175C188.042 73.775 189.067 74.5667 189.85 75.55C190.65 76.5167 191.258 77.575 191.675 78.725C192.092 79.875 192.375 81 192.525 82.1C192.675 83.2 192.75 84.1667 192.75 85V100H187.45ZM168.475 100V73H173.15V80.8H173.775V100H168.475ZM210.895 100.75C208.212 100.75 205.853 100.167 203.82 99C201.803 97.8167 200.228 96.175 199.095 94.075C197.978 91.9583 197.42 89.5083 197.42 86.725C197.42 83.775 197.97 81.2167 199.07 79.05C200.187 76.8833 201.737 75.2083 203.72 74.025C205.703 72.8417 208.012 72.25 210.645 72.25C213.395 72.25 215.737 72.8917 217.67 74.175C219.603 75.4417 221.045 77.25 221.995 79.6C222.962 81.95 223.345 84.7417 223.145 87.975H217.92V86.075C217.887 82.9417 217.287 80.625 216.12 79.125C214.97 77.625 213.212 76.875 210.845 76.875C208.228 76.875 206.262 77.7 204.945 79.35C203.628 81 202.97 83.3833 202.97 86.5C202.97 89.4667 203.628 91.7667 204.945 93.4C206.262 95.0167 208.162 95.825 210.645 95.825C212.278 95.825 213.687 95.4583 214.87 94.725C216.07 93.975 217.003 92.9083 217.67 91.525L222.795 93.15C221.745 95.5667 220.153 97.4417 218.02 98.775C215.887 100.092 213.512 100.75 210.895 100.75ZM201.27 87.975V83.9H220.545V87.975H201.27Z" fill="white"/>
<path d="M87.4142 92.4142C88.1953 91.6332 88.1953 90.3668 87.4142 89.5858L74.6863 76.8579C73.9052 76.0768 72.6389 76.0768 71.8579 76.8579C71.0768 77.6389 71.0768 78.9052 71.8579 79.6863L83.1716 91L71.8579 102.314C71.0768 103.095 71.0768 104.361 71.8579 105.142C72.6389 105.923 73.9052 105.923 74.6863 105.142L87.4142 92.4142ZM1.74846e-07 93L86 93L86 89L-1.74846e-07 89L1.74846e-07 93Z" fill="black"/>
<path d="M4 46V10H9.225V46H4ZM35.6824 46V32.725C35.6824 31.675 35.5908 30.6 35.4074 29.5C35.2408 28.3833 34.9074 27.35 34.4074 26.4C33.9241 25.45 33.2324 24.6833 32.3324 24.1C31.4491 23.5167 30.2908 23.225 28.8574 23.225C27.9241 23.225 27.0408 23.3833 26.2074 23.7C25.3741 24 24.6408 24.4917 24.0074 25.175C23.3908 25.8583 22.8991 26.7583 22.5324 27.875C22.1824 28.9917 22.0074 30.35 22.0074 31.95L18.7574 30.725C18.7574 28.275 19.2158 26.1167 20.1324 24.25C21.0491 22.3667 22.3658 20.9 24.0824 19.85C25.7991 18.8 27.8741 18.275 30.3074 18.275C32.1741 18.275 33.7408 18.575 35.0074 19.175C36.2741 19.775 37.2991 20.5667 38.0824 21.55C38.8824 22.5167 39.4908 23.575 39.9074 24.725C40.3241 25.875 40.6074 27 40.7574 28.1C40.9074 29.2 40.9824 30.1667 40.9824 31V46H35.6824ZM16.7074 46V19H21.3824V26.8H22.0074V46H16.7074ZM61.4691 23.2V19H68.4691V23.2H61.4691ZM49.9691 46V18.05C49.9691 17.3667 49.9941 16.6417 50.0441 15.875C50.0941 15.0917 50.2358 14.325 50.4691 13.575C50.7191 12.8083 51.1275 12.1083 51.6941 11.475C52.3775 10.725 53.1275 10.1917 53.9441 9.875C54.7608 9.55833 55.5691 9.375 56.3691 9.325C57.1858 9.275 57.9358 9.25 58.6191 9.25H62.0191V13.55H58.8691C57.6358 13.55 56.7108 13.8583 56.0941 14.475C55.4941 15.075 55.1941 15.9333 55.1941 17.05V46H49.9691ZM45.4941 23.2V19H62.0191V23.2H45.4941ZM68.1441 46V9.25H73.3691V46H68.1441ZM91.0676 46.725C89.2009 46.725 87.6342 46.425 86.3676 45.825C85.1009 45.225 84.0676 44.4417 83.2676 43.475C82.4842 42.4917 81.8842 41.425 81.4676 40.275C81.0509 39.125 80.7676 38 80.6176 36.9C80.4676 35.8 80.3926 34.8333 80.3926 34V19H85.6926V32.275C85.6926 33.325 85.7759 34.4083 85.9426 35.525C86.1259 36.625 86.4592 37.65 86.9426 38.6C87.4426 39.55 88.1342 40.3167 89.0176 40.9C89.9176 41.4833 91.0842 41.775 92.5176 41.775C93.4509 41.775 94.3342 41.625 95.1676 41.325C96.0009 41.0083 96.7259 40.5083 97.3426 39.825C97.9759 39.1417 98.4676 38.2417 98.8176 37.125C99.1842 36.0083 99.3676 34.65 99.3676 33.05L102.618 34.275C102.618 36.725 102.159 38.8917 101.243 40.775C100.326 42.6417 99.0092 44.1 97.2926 45.15C95.5759 46.2 93.5009 46.725 91.0676 46.725ZM99.9926 46V38.2H99.3676V19H104.643V46H99.9926Z" fill="white"/>
<mask id="mask0_2208_7518" style="mask-type:alpha" maskUnits="userSpaceOnUse" x="132" y="68" width="32" height="36">
<rect x="132" y="68" width="31.456" height="35.6806" fill="#D9D9D9"/>
</mask>
<g mask="url(#mask0_2208_7518)">
<path d="M144.881 99.964H136.336C135.683 99.964 135.124 99.7014 134.661 99.1764C134.198 98.6511 133.967 98.0178 133.967 97.2764V89.071H135.933V97.2764C135.933 97.41 135.971 97.5196 136.046 97.6053C136.122 97.6911 136.218 97.7339 136.336 97.7339H144.881V99.964ZM150.577 99.964V97.7339H159.121C159.239 97.7339 159.336 97.6911 159.411 97.6053C159.487 97.5196 159.525 97.41 159.525 97.2764V89.071H161.491V97.2764C161.491 98.0178 161.259 98.6511 160.796 99.1764C160.333 99.7014 159.775 99.964 159.121 99.964H150.577ZM133.967 82.6239V74.4044C133.967 73.663 134.198 73.0297 134.661 72.5044C135.124 71.9793 135.683 71.7168 136.336 71.7168H144.881V73.9468H136.336C136.218 73.9468 136.122 73.9897 136.046 74.0754C135.971 74.1612 135.933 74.2708 135.933 74.4044V82.6239H133.967ZM159.525 82.6239V74.4044C159.525 74.2708 159.487 74.1612 159.411 74.0754C159.336 73.9897 159.239 73.9468 159.121 73.9468H150.577V71.7168H159.121C159.775 71.7168 160.333 71.9793 160.796 72.5044C161.259 73.0297 161.491 73.663 161.491 74.4044V82.6239H159.525Z" fill="black"/>
</g>
</g>
<defs>
<clipPath id="clip0_2208_7518">
<rect width="226" height="115" fill="white"/>
</clipPath>
</defs>
</svg>
