<svg width="128" height="73" viewBox="0 0 128 73" fill="none" xmlns="http://www.w3.org/2000/svg">
<path d="M66.6667 24C66.6667 26.9455 69.0545 29.3333 72 29.3333C74.9455 29.3333 77.3333 26.9455 77.3333 24C77.3333 21.0545 74.9455 18.6667 72 18.6667C69.0545 18.6667 66.6667 21.0545 66.6667 24ZM72 25H127V23H72V25Z" fill="#118279"/>
<path d="M50.5 64V63.505L61.525 45.355H51.1V42.4H66.91V42.91L55.945 61.03H66.715V64H50.5Z" fill="black"/>
<path d="M104.47 64V56.035C104.47 55.405 104.415 54.76 104.305 54.1C104.205 53.43 104.005 52.81 103.705 52.24C103.415 51.67 103 51.21 102.46 50.86C101.93 50.51 101.235 50.335 100.375 50.335C99.815 50.335 99.285 50.43 98.785 50.62C98.285 50.8 97.845 51.095 97.465 51.505C97.095 51.915 96.8 52.455 96.58 53.125C96.37 53.795 96.265 54.61 96.265 55.57L94.315 54.835C94.315 53.365 94.59 52.07 95.14 50.95C95.69 49.82 96.48 48.94 97.51 48.31C98.54 47.68 99.785 47.365 101.245 47.365C102.365 47.365 103.305 47.545 104.065 47.905C104.825 48.265 105.44 48.74 105.91 49.33C106.39 49.91 106.755 50.545 107.005 51.235C107.255 51.925 107.425 52.6 107.515 53.26C107.605 53.92 107.65 54.5 107.65 55V64H104.47ZM93.085 64V47.8H95.89V52.48H96.265V64H93.085ZM118.537 64.45C116.927 64.45 115.512 64.1 114.292 63.4C113.082 62.69 112.137 61.705 111.457 60.445C110.787 59.175 110.452 57.705 110.452 56.035C110.452 54.265 110.782 52.73 111.442 51.43C112.112 50.13 113.042 49.125 114.232 48.415C115.422 47.705 116.807 47.35 118.387 47.35C120.037 47.35 121.442 47.735 122.602 48.505C123.762 49.265 124.627 50.35 125.197 51.76C125.777 53.17 126.007 54.845 125.887 56.785H122.752V55.645C122.732 53.765 122.372 52.375 121.672 51.475C120.982 50.575 119.927 50.125 118.507 50.125C116.937 50.125 115.757 50.62 114.967 51.61C114.177 52.6 113.782 54.03 113.782 55.9C113.782 57.68 114.177 59.06 114.967 60.04C115.757 61.01 116.897 61.495 118.387 61.495C119.367 61.495 120.212 61.275 120.922 60.835C121.642 60.385 122.202 59.745 122.602 58.915L125.677 59.89C125.047 61.34 124.092 62.465 122.812 63.265C121.532 64.055 120.107 64.45 118.537 64.45ZM112.762 56.785V54.34H124.327V56.785H112.762Z" fill="black"/>
<path d="M46.7071 54.7071C47.0976 54.3166 47.0976 53.6834 46.7071 53.2929L40.3431 46.9289C39.9526 46.5384 39.3195 46.5384 38.9289 46.9289C38.5384 47.3195 38.5384 47.9526 38.9289 48.3431L44.5858 54L38.9289 59.6569C38.5384 60.0474 38.5384 60.6805 38.9289 61.0711C39.3195 61.4616 39.9526 61.4616 40.3431 61.0711L46.7071 54.7071ZM2 55L46 55L46 53L2 53L2 55Z" fill="#118279"/>
<path d="M2.4 32V10.4H5.535V32H2.4ZM21.4095 32V24.035C21.4095 23.405 21.3545 22.76 21.2445 22.1C21.1445 21.43 20.9445 20.81 20.6445 20.24C20.3545 19.67 19.9395 19.21 19.3995 18.86C18.8695 18.51 18.1745 18.335 17.3145 18.335C16.7545 18.335 16.2245 18.43 15.7245 18.62C15.2245 18.8 14.7845 19.095 14.4045 19.505C14.0345 19.915 13.7395 20.455 13.5195 21.125C13.3095 21.795 13.2045 22.61 13.2045 23.57L11.2545 22.835C11.2545 21.365 11.5295 20.07 12.0795 18.95C12.6295 17.82 13.4195 16.94 14.4495 16.31C15.4795 15.68 16.7245 15.365 18.1845 15.365C19.3045 15.365 20.2445 15.545 21.0045 15.905C21.7645 16.265 22.3795 16.74 22.8495 17.33C23.3295 17.91 23.6945 18.545 23.9445 19.235C24.1945 19.925 24.3645 20.6 24.4545 21.26C24.5445 21.92 24.5895 22.5 24.5895 23V32H21.4095ZM10.0245 32V15.8H12.8295V20.48H13.2045V32H10.0245ZM36.8815 18.32V15.8H41.0815V18.32H36.8815ZM29.9815 32V15.23C29.9815 14.82 29.9965 14.385 30.0265 13.925C30.0565 13.455 30.1415 12.995 30.2815 12.545C30.4315 12.085 30.6765 11.665 31.0165 11.285C31.4265 10.835 31.8765 10.515 32.3665 10.325C32.8565 10.135 33.3415 10.025 33.8215 9.995C34.3115 9.965 34.7615 9.95 35.1715 9.95H37.2115V12.53H35.3215C34.5815 12.53 34.0265 12.715 33.6565 13.085C33.2965 13.445 33.1165 13.96 33.1165 14.63V32H29.9815ZM27.2965 18.32V15.8H37.2115V18.32H27.2965ZM40.8865 32V9.95H44.0215V32H40.8865ZM54.6405 32.435C53.5205 32.435 52.5805 32.255 51.8205 31.895C51.0605 31.535 50.4405 31.065 49.9605 30.485C49.4905 29.895 49.1305 29.255 48.8805 28.565C48.6305 27.875 48.4605 27.2 48.3705 26.54C48.2805 25.88 48.2355 25.3 48.2355 24.8V15.8H51.4155V23.765C51.4155 24.395 51.4655 25.045 51.5655 25.715C51.6755 26.375 51.8755 26.99 52.1655 27.56C52.4655 28.13 52.8805 28.59 53.4105 28.94C53.9505 29.29 54.6505 29.465 55.5105 29.465C56.0705 29.465 56.6005 29.375 57.1005 29.195C57.6005 29.005 58.0355 28.705 58.4055 28.295C58.7855 27.885 59.0805 27.345 59.2905 26.675C59.5105 26.005 59.6205 25.19 59.6205 24.23L61.5705 24.965C61.5705 26.435 61.2955 27.735 60.7455 28.865C60.1955 29.985 59.4055 30.86 58.3755 31.49C57.3455 32.12 56.1005 32.435 54.6405 32.435ZM59.9955 32V27.32H59.6205V15.8H62.7855V32H59.9955Z" fill="black"/>
<mask id="mask0_1370_6057" style="mask-type:alpha" maskUnits="userSpaceOnUse" x="72" y="47" width="17" height="19">
<rect x="72" y="47" width="16.7504" height="19" fill="#D9D9D9"/>
</mask>
<g mask="url(#mask0_1370_6057)">
<path d="M78.8586 64.0212H74.3086C73.9605 64.0212 73.6632 63.8814 73.4166 63.6018C73.1701 63.3221 73.0469 62.9848 73.0469 62.59V58.2206H74.0938V62.59C74.0938 62.6611 74.1139 62.7195 74.1541 62.7652C74.1944 62.8108 74.2459 62.8337 74.3086 62.8337H78.8586V64.0212ZM81.8918 64.0212V62.8337H86.4418C86.5045 62.8337 86.5559 62.8108 86.5962 62.7652C86.6364 62.7195 86.6566 62.6611 86.6566 62.59V58.2206H87.7035V62.59C87.7035 62.9848 87.5802 63.3221 87.3337 63.6018C87.0871 63.8814 86.7898 64.0212 86.4418 64.0212H81.8918ZM73.0469 54.7876V50.4106C73.0469 50.0158 73.1701 49.6786 73.4166 49.3989C73.6632 49.1193 73.9605 48.9795 74.3086 48.9795H78.8586V50.167H74.3086C74.2459 50.167 74.1944 50.1898 74.1541 50.2355C74.1139 50.2811 74.0938 50.3395 74.0938 50.4106V54.7876H73.0469ZM86.6566 54.7876V50.4106C86.6566 50.3395 86.6364 50.2811 86.5962 50.2355C86.5559 50.1898 86.5045 50.167 86.4418 50.167H81.8918V48.9795H86.4418C86.7898 48.9795 87.0871 49.1193 87.3337 49.3989C87.5802 49.6786 87.7035 50.0158 87.7035 50.4106V54.7876H86.6566Z" fill="#118279"/>
</g>
</svg>
