<svg width="69" height="69" viewBox="0 0 69 69" fill="none" xmlns="http://www.w3.org/2000/svg">
<mask id="mask0_2281_12368" style="mask-type:alpha" maskUnits="userSpaceOnUse" x="0" y="0" width="69" height="69">
<rect x="30.25" width="49" height="49" transform="rotate(38.123 30.25 0)" fill="#D9D9D9"/>
</mask>
<g mask="url(#mask0_2281_12368)">
<path d="M14.6221 36.448L15.8825 34.8418L18.4773 36.878L28.4636 24.1525C30.1103 22.054 32.2227 20.7295 34.8006 20.1789C37.3788 19.6285 39.8406 19.9576 42.186 21.1662L42.8745 20.2888C43.2247 19.8426 43.6781 19.5857 44.2346 19.518C44.7914 19.4502 45.2923 19.5909 45.7375 19.9403C46.1827 20.2896 46.4397 20.7437 46.5085 21.3025C46.5776 21.861 46.437 22.3634 46.0869 22.8097L45.3983 23.687C47.1299 25.6778 48.0349 27.9908 48.1132 30.6259C48.1913 33.2609 47.407 35.6275 45.7603 37.726L35.7739 50.4515L38.3687 52.4878L37.1082 54.0939L14.6221 36.448ZM22.5632 49.467C21.8482 48.9059 21.4374 48.173 21.3307 47.2683C21.2237 46.3634 21.4502 45.5543 22.01 44.8409L27.1995 48.9133C26.6354 49.6321 25.9004 50.0443 24.9944 50.1499C24.0886 50.2558 23.2782 50.0281 22.5632 49.467Z" fill="#BCBCBC"/>
</g>
</svg>
