<svg width="35" height="36" viewBox="0 0 35 36" fill="none" xmlns="http://www.w3.org/2000/svg">
<path d="M0.622085 17.448L1.88251 15.8418L4.47725 17.878L14.4636 5.15247C16.1103 3.05403 18.2227 1.7295 20.8006 1.1789C23.3788 0.628498 25.8406 0.957592 28.186 2.16618L28.8745 1.28882C29.2247 0.84258 29.6781 0.585654 30.2346 0.518048C30.7914 0.450173 31.2923 0.59091 31.7375 0.940258C32.1827 1.28961 32.4397 1.74368 32.5085 2.30249C32.5776 2.86104 32.437 3.36343 32.0869 3.80967L31.3983 4.68703C33.1299 6.67782 34.0349 8.99079 34.1132 11.6259C34.1913 14.2609 33.407 16.6275 31.7603 18.726L21.7739 31.4515L24.3687 33.4878L23.1082 35.0939L0.622085 17.448ZM8.56322 30.467C7.84821 29.9059 7.43736 29.173 7.33067 28.2683C7.22372 27.3634 7.45016 26.5543 8.01 25.8409L13.1995 29.9133C12.6354 30.6321 11.9004 31.0443 10.9944 31.1499C10.0886 31.2557 9.27822 31.0281 8.56322 30.467Z" fill="white"/>
</svg>
