<svg width="31" height="30" viewBox="0 0 31 30" fill="none" xmlns="http://www.w3.org/2000/svg">
<mask id="mask0_1424_5344" style="mask-type:alpha" maskUnits="userSpaceOnUse" x="0" y="0" width="31" height="30">
<rect x="0.111328" width="30.2061" height="30" fill="#D9D9D9"/>
</mask>
<g mask="url(#mask0_1424_5344)">
<path d="M15.2134 20.875C16.3461 20.875 17.3949 20.5677 18.3599 19.9531C19.3248 19.3385 20.0589 18.5208 20.5624 17.5H9.86439C10.3678 18.5208 11.102 19.3385 12.0669 19.9531C13.0318 20.5677 14.0807 20.875 15.2134 20.875ZM9.92732 13.0625L11.3118 11.6875L12.6962 13.0625L13.3255 12.4375L11.3118 10.4375L9.29802 12.4375L9.92732 13.0625ZM17.7306 13.0625L19.115 11.6875L20.4995 13.0625L21.1287 12.4375L19.115 10.4375L17.1013 12.4375L17.7306 13.0625ZM15.2187 25.875C13.7049 25.875 12.2813 25.5897 10.948 25.0191C9.61477 24.4484 8.45508 23.674 7.46898 22.6956C6.48267 21.7173 5.70192 20.567 5.12675 19.2447C4.55136 17.9222 4.26367 16.5091 4.26367 15.0053C4.26367 13.5018 4.55094 12.0879 5.12549 10.7638C5.70004 9.43958 6.47984 8.28781 7.46489 7.30844C8.44994 6.32885 9.60816 5.55344 10.9395 4.98219C12.2711 4.41073 13.694 4.125 15.208 4.125C16.7219 4.125 18.1455 4.41031 19.4787 4.98094C20.812 5.55156 21.9717 6.32604 22.9578 7.30437C23.9441 8.28271 24.7248 9.43302 25.3 10.7553C25.8754 12.0778 26.1631 13.4909 26.1631 14.9947C26.1631 16.4982 25.8758 17.9121 25.3013 19.2362C24.7267 20.5604 23.9469 21.7122 22.9619 22.6916C21.9768 23.6711 20.8186 24.4466 19.4872 25.0178C18.1557 25.5893 16.7328 25.875 15.2187 25.875Z" fill="white"/>
</g>
</svg>
