<svg width="53" height="53" viewBox="0 0 53 53" fill="none" xmlns="http://www.w3.org/2000/svg">
<mask id="mask0_2312_10622" style="mask-type:alpha" maskUnits="userSpaceOnUse" x="0" y="0" width="53" height="53">
<rect width="53" height="53" fill="#D9D9D9"/>
</mask>
<g mask="url(#mask0_2312_10622)">
<path d="M42.9507 43.9455L29.1486 30.1434C28.0445 31.1004 26.7747 31.8365 25.3393 32.3518C23.9038 32.867 22.4868 33.1247 21.0882 33.1247C17.6936 33.1247 14.8206 31.9498 12.4691 29.6002C10.118 27.2509 8.94238 24.38 8.94238 20.9877C8.94238 17.5957 10.1172 14.7219 12.4669 12.3663C14.8162 10.0108 17.687 8.83301 21.0794 8.83301C24.4714 8.83301 27.3452 10.0086 29.7007 12.3597C32.0563 14.7112 33.234 17.5843 33.234 20.9788C33.234 22.4879 32.958 23.9601 32.4059 25.3955C31.8538 26.8309 31.1361 28.0455 30.2528 29.0393L44.0549 42.8413L42.9507 43.9455ZM21.0882 31.5788C24.0695 31.5788 26.5814 30.5575 28.6242 28.5148C30.6669 26.4721 31.6882 23.9601 31.6882 20.9788C31.6882 17.9976 30.6669 15.4856 28.6242 13.4429C26.5814 11.4002 24.0695 10.3788 21.0882 10.3788C18.107 10.3788 15.595 11.4002 13.5523 13.4429C11.5096 15.4856 10.4882 17.9976 10.4882 20.9788C10.4882 23.9601 11.5096 26.4721 13.5523 28.5148C15.595 30.5575 18.107 31.5788 21.0882 31.5788Z" fill="#B0B0B0"/>
</g>
</svg>
