<svg width="60" height="60" viewBox="0 0 60 60" fill="none" xmlns="http://www.w3.org/2000/svg">
<mask id="mask0_1036_15426" style="mask-type:alpha" maskUnits="userSpaceOnUse" x="0" y="0" width="60" height="60">
<rect width="60" height="60" fill="#D9D9D9"/>
</mask>
<g mask="url(#mask0_1036_15426)">
<path d="M17.3125 46.75C16.1458 46.75 15.1771 46.3958 14.4063 45.6875C13.6354 44.9792 13.25 44.0833 13.25 43V22.1875L5.75 13.25H47.6875C48.8542 13.25 49.8229 13.6042 50.5938 14.3125C51.3646 15.0208 51.75 15.9167 51.75 17V43C51.75 44.0833 51.3646 44.9792 50.5938 45.6875C49.8229 46.3958 48.8542 46.75 47.6875 46.75H17.3125ZM9.5 15L15 21.5V43C15 43.5 15.2396 43.9583 15.7187 44.375C16.1979 44.7917 16.7292 45 17.3125 45H47.6875C48.2708 45 48.8021 44.7917 49.2813 44.375C49.7604 43.9583 50 43.5 50 43V17C50 16.5 49.7604 16.0417 49.2813 15.625C48.8021 15.2083 48.2708 15 47.6875 15H9.5ZM30.8125 40.5L32.0625 39.25L27.1875 34.875H41.3125V33.125H22.875L30.8125 40.5ZM22.875 26.875H41.3125L33.4375 19.5L32.1875 20.75L37.0625 25.125H22.875V26.875Z" fill="#1C1B1F"/>
</g>
</svg>
